# xmcd
#
# Track frame offsets:
#	150
#	24283
#	35242
#	61876
#	81922
#	96436
#	114829
#	128928
#	143174
#	166284
#
# Disc length: 2397 seconds
#
# Revision: 1
# Processed by: cddbd v1.5.2PL0 Copyright (c) Steve Scherf et al.
# Submitted via: EasyCDDAExtractor 16.0.6.1
#
DISCID=82095b0a
DTITLE=Valérie Carpentier - Du Parc Belmont à Hotesse de l'Air
DYEAR=2010
DGENRE=Blues
TTITLE0=Le Parc Belmont
TTITLE1=Hymne à la Beauté du Monde
TTITLE2=Les Hauts et les Bas d'une Hotesse de l'Air
TTITLE3=Chanson pour Elvis
TTITLE4=La Dernière Enfance
TTITLE5=J'ai Douze Ans
TTITLE6=J'ai Rencontré l'Homme de ma Vie
TTITLE7=Rock pour un Gars d'Bicycle
TTITLE8=Oxygène
TTITLE9=J'ai Besoin d'un Chum
EXTD=
EXTT0=
EXTT1=
EXTT2=
EXTT3=
EXTT4=
EXTT5=
EXTT6=
EXTT7=
EXTT8=
EXTT9=
PLAYORDER=
